<?xml version="1.0" encoding="UTF-8" standalone="no"?>
<svg width="131px" height="31px" viewBox="0 0 131 31" version="1.1" xmlns="http://www.w3.org/2000/svg" xmlns:xlink="http://www.w3.org/1999/xlink">
    <!-- Generator: Sketch 3.8.3 (29802) - http://www.bohemiancoding.com/sketch -->
    <title>logo</title>
    <desc>Created with Sketch.</desc>
    <defs></defs>
    <g id="Symbols" stroke="none" stroke-width="1" fill="none" fill-rule="evenodd">
        <g id="Header---首頁" transform="translate(-70.000000, -22.000000)" fill="#FFFFFF">
            <g id="Header---服務項目">
                <g id="Header-4">
                    <g id="logo" transform="translate(70.000000, 22.000000)">
                        <g id="Group" transform="translate(0.284296, 0.497013)">
                            <polygon id="Shape" points="56.184971 22.3760182 56.9170909 18.935158 51.8968403 18.935158 52.566207 15.8071033 57.7328816 15.8071033 58.4859192 12.3870968 49.3239619 12.3870968 45.6633625 29.3620072 55.1181677 29.3620072 55.8502876 25.921147 50.4116828 25.921147 51.1856381 22.3760182"></polygon>
                            <path d="M2.1545242,14.8895406 C2.1545242,11.5946562 3.53509311,8.61257739 5.73145274,6.48550016 L6.42173719,3.23232323 C2.57287842,5.69305963 0.0209177107,9.98892147 0.0209177107,14.8686869 C0.0209177107,17.6630824 0.857626139,20.2906484 2.30094818,22.459433 L2.99123263,19.2271098 C2.44737215,17.8924731 2.1545242,16.4327142 2.1545242,14.8895406 L2.1545242,14.8895406 Z" id="Shape"></path>
                            <path d="M31.815838,12.3870968 L29.0965356,25.0452916 C28.9501116,25.7751711 28.4271689,26.6301727 27.3812833,26.6301727 C27.2348593,26.6301727 25.9797967,26.609319 25.9797967,26.609319 L26.607328,23.8566308 L29.0756179,12.3870968 L25.0803351,12.3870968 L22.4447036,24.6282177 C21.691666,28.131639 23.3441652,29.6331052 26.7328343,29.6331052 C30.8327056,29.6331052 32.5897933,27.5268817 33.2173246,24.6490714 L35.8529562,12.3870968 L31.815838,12.3870968 L31.815838,12.3870968 Z" id="Shape"></path>
                            <polygon id="Shape" points="116.992756 12.3870968 113.332157 29.3620072 117.348357 29.3620072 120.988039 12.3870968"></polygon>
                            <path d="M113.478581,13.0961225 C112.349024,12.3453894 110.591937,12.3662431 109.148615,12.3662431 L104.797731,12.3662431 L101.137131,29.3411535 L106.575736,29.3411535 C107.809881,29.3411535 109.085861,29.1117628 110.278171,28.4444444 C111.595987,27.714565 112.39086,26.4633431 112.767378,24.7741935 L114.378042,17.2460085 C114.733643,15.61942 114.817314,14.0136852 113.478581,13.0961225 L113.478581,13.0961225 Z M110.320006,17.4962529 L109.127697,23.0641903 C108.709343,25.3372434 108.45833,26.4216357 105.801781,26.2339524 L108.123647,15.3483219 C110.089911,15.3691756 110.717443,15.4942978 110.320006,17.4962529 L110.320006,17.4962529 Z" id="Shape"></path>
                            <polygon id="Shape" points="125.527182 12.3870968 118.164148 29.3620072 122.180348 29.3620072 127.242434 15.3691756 126.384808 29.3620072 130.359173 29.3620072 130.359173 12.3870968"></polygon>
                            <polygon id="Shape" points="100.865201 22.2717498 101.597321 18.8308895 96.5979881 18.8308895 97.2673548 15.7028348 102.434029 15.7028348 103.145232 12.3870968 93.9832742 12.3870968 90.3226749 29.3620072 99.7774801 29.3620072 100.530518 25.921147 95.0709952 25.921147 95.8658682 22.2717498"></polygon>
                            <polygon id="Shape" points="86.8084995 12.3870968 82.5203688 22.3760182 82.4785333 22.3760182 82.5622042 12.3870968 76.9144223 12.3870968 73.2538229 29.3620072 77.0608463 29.3620072 79.5709716 16.0156403 79.612807 16.0156403 79.5082184 29.3620072 82.4576156 29.3620072 88.1681507 16.0156403 88.2099861 16.0156403 84.9259055 29.3620072 88.7538466 29.3620072 92.4144459 12.3870968"></polygon>
                            <path d="M64.7821501,12.3870968 L60.0547475,12.3870968 L56.3941481,29.3620072 L60.3894308,29.3620072 L61.8118352,22.6888237 C62.2301894,22.66797 62.6694613,22.6471163 63.0878155,22.6471163 C63.7571823,22.7305311 64.2173719,23.3769958 64.0709479,24.0443141 L62.9623092,29.3828609 L66.9785097,29.3828609 L68.0243952,24.4613881 C68.2544901,23.4187032 67.7315473,22.3968719 66.8739212,21.9172369 C68.5682557,20.9788205 69.342211,19.0602802 69.7187298,17.3711307 C70.0115778,15.9947866 70.0952486,14.7852721 69.3840464,13.7425872 C68.547338,12.4496579 66.3300607,12.3870968 64.7821501,12.3870968 L64.7821501,12.3870968 Z M65.7652825,17.2877159 C65.6397762,17.8716194 65.4096814,18.5180841 64.9285741,18.9768654 C64.9076563,18.9977191 64.8867386,19.0185728 64.8658209,19.0185728 C64.133701,19.4982079 63.2969926,19.4356468 62.543955,19.4773542 L63.4643343,15.202346 C63.4643343,15.202346 64.7403147,15.1814923 65.2841751,15.2857608 C65.4096814,15.3066145 65.51427,15.3483219 65.5979408,15.4317367 C66.016295,15.827957 65.8907887,16.6829586 65.7652825,17.2877159 L65.7652825,17.2877159 Z" id="Shape"></path>
                            <path d="M20.4156857,12.3870968 L20.4156857,12.3870968 L11.4629055,12.3870968 L12.7388858,6.42293907 C12.8434744,5.90159661 13.2827463,5.52623004 13.8056891,5.52623004 L18.8259396,5.50537634 L18.219326,8.32062561 L23.4696714,11.3444119 L25.2476768,3.02378625 C25.5614425,1.54317367 24.4109684,0.12512219 22.9258109,0.12512219 L10.8562919,0.166829586 C9.24562814,0.166829586 7.90689465,1.27207559 7.57221128,2.85695666 L5.04116828,14.8061258 C4.74832033,16.1407625 5.79420587,17.4545455 7.15385706,17.4336918 L16.2948966,17.4128381 L15.0189163,23.3978495 C14.9143277,23.9191919 14.4750558,24.2737048 13.952113,24.2737048 L8.93186247,24.2945585 L9.53847609,21.4793092 L4.2881307,18.455523 L2.51012529,26.7761486 C2.19635962,28.2567612 3.34683371,29.7790811 4.83199117,29.6748126 L16.9015103,29.6748126 C18.512174,29.6748126 19.8509075,28.5070055 20.1855908,26.9429782 L22.7375515,15.0146628 C22.9885641,13.6591724 21.984514,12.3870968 20.4156857,12.3870968 L20.4156857,12.3870968 Z" id="Shape"></path>
                            <path d="M46.7301657,13.7008798 C45.8934573,12.4288042 43.67618,12.3662431 42.1282694,12.3662431 L37.379949,12.3662431 L33.7193497,29.3411535 L37.7146324,29.3411535 L39.1579545,22.6471163 C40.6849473,22.5845552 42.2537756,22.7722385 43.7807685,22.1049202 C45.7888688,21.2707722 46.6464949,19.2062561 47.0439314,17.3711307 C47.3576971,15.9947866 47.4413679,14.7435647 46.7301657,13.7008798 L46.7301657,13.7008798 Z M43.0486486,17.3085696 C42.9231424,17.8924731 42.6930476,18.5806452 42.1701048,19.0394265 C41.4170672,19.5399153 40.5803588,19.4773542 39.8273212,19.4773542 L40.7267828,15.202346 C40.7267828,15.202346 41.8981746,15.202346 42.4629527,15.2857608 C42.734883,15.3274682 42.9649778,15.4942978 43.0486486,15.7445422 C43.2578258,16.1824699 43.1532372,16.8289345 43.0486486,17.3085696 L43.0486486,17.3085696 Z" id="Shape"></path>
                        </g>
                    </g>
                </g>
            </g>
        </g>
    </g>
</svg>